<svg width="18" height="19" viewBox="0 0 18 19" fill="none" xmlns="http://www.w3.org/2000/svg">
<path d="M11.9355 18.9971H17.0244C17.5166 18.9971 17.7715 18.7686 17.7715 18.373C17.7715 17.9688 17.5166 17.749 17.0244 17.749H15.2051V1.50684H17.0244C17.5166 1.50684 17.7715 1.28711 17.7715 0.874023C17.7715 0.478516 17.5166 0.267578 17.0244 0.267578H11.9355C11.4434 0.267578 11.1885 0.478516 11.1885 0.874023C11.1885 1.28711 11.4434 1.50684 11.9355 1.50684H13.7725V17.749H11.9355C11.4434 17.749 11.1885 17.9688 11.1885 18.373C11.1885 18.7686 11.4434 18.9971 11.9355 18.9971ZM5.50195 16.2373C6.13477 16.2373 6.54785 15.8418 6.54785 15.209V5.0752H9.87012C10.4062 5.0752 10.793 4.72363 10.793 4.17871C10.793 3.64258 10.4062 3.29102 9.87012 3.29102H1.14258C0.606445 3.29102 0.219727 3.64258 0.219727 4.17871C0.219727 4.72363 0.606445 5.0752 1.14258 5.0752H4.46484V15.209C4.46484 15.8418 4.86914 16.2373 5.50195 16.2373Z" fill="white"/>
</svg>
