<svg width="22" height="17" viewBox="0 0 22 17" fill="none" xmlns="http://www.w3.org/2000/svg">
<path d="M3.47656 16.8809H18.5146C20.4219 16.8809 21.415 15.8965 21.415 14.0156V3.31934C21.415 1.43848 20.4219 0.454102 18.5146 0.454102H3.47656C1.57812 0.454102 0.584961 1.42969 0.584961 3.31934V14.0156C0.584961 15.8965 1.57812 16.8809 3.47656 16.8809ZM3.59082 15.1318C2.78223 15.1318 2.33398 14.71 2.33398 13.8574V3.47754C2.33398 2.625 2.78223 2.20312 3.59082 2.20312H18.4004C19.209 2.20312 19.6572 2.625 19.6572 3.47754V13.8574C19.6572 14.71 19.209 15.1318 18.4004 15.1318H3.59082ZM14.4102 9.14648C14.7881 8.92676 14.7793 8.39941 14.4102 8.17969L9.35645 5.2002C8.96973 4.97168 8.45996 5.16504 8.45996 5.5957V11.7305C8.45996 12.1523 8.94336 12.3633 9.35645 12.1172L14.4102 9.14648Z" fill="white"/>
</svg>
