<svg width="32" height="25" viewBox="0 0 32 25" fill="none" xmlns="http://www.w3.org/2000/svg">
<path d="M4.7323 25H27.2677C30.3377 25 32 23.3787 32 20.4106V4.58944C32 1.62134 30.3377 0 27.2677 0H4.7323C1.67574 0 0 1.62134 0 4.58944V20.4106C0 23.3787 1.67574 25 4.7323 25ZM3.45873 4.99477C3.45873 3.88337 4.03519 3.37343 5.10767 3.37343H26.8923C27.9648 3.37343 28.5413 3.88337 28.5413 4.99477V17.7301L22.6695 12.3692C22.0796 11.8593 21.3825 11.5847 20.6854 11.5847C19.9481 11.5847 19.2912 11.8332 18.6745 12.3562L12.6418 17.6255L10.1751 15.4681C9.61207 14.9712 8.98199 14.7228 8.36531 14.7228C7.72183 14.7228 7.19899 14.9582 6.64935 15.4419L3.45873 18.1878V4.99477ZM11.0867 12.9446C12.8965 12.9446 14.3846 11.4801 14.3846 9.70188C14.3846 7.94979 12.8965 6.47228 11.0867 6.47228C9.26351 6.47228 7.77545 7.94979 7.77545 9.70188C7.77545 11.4801 9.26351 12.9446 11.0867 12.9446Z" fill="white"/>
</svg>
