<svg width="902" height="244" viewBox="0 0 902 244" fill="none" xmlns="http://www.w3.org/2000/svg">
<path d="M604 200.989H613.04V46H604V200.989ZM622.684 200.989H650.408V46H622.684V200.989ZM659.45 46V200.983H687.173V46H659.45Z" fill="white"/>
<path d="M827.063 201H836.105V46H827.063V201ZM845.75 46V201H854.79V46H845.75ZM696.514 201H705.555V46H696.514V201ZM715.201 46V200.994H724.243V46H715.201Z" fill="white"/>
<path d="M733.581 201H761.307V46H733.581V201ZM770.346 201H779.988V46H770.346V201V201ZM789.03 46V200.994H816.753V46H789.03Z" fill="white"/>
<path opacity="0.975" d="M9.45361 9L891.672 10.5433L893.183 234.636L10.9645 233.092L9.45361 9Z" stroke="white" stroke-width="17.3188" stroke-miterlimit="0.8"/>
<path d="M88.56 82.1276C88.56 84.2526 88.258 86.3046 87.6539 88.2838C87.0497 90.263 86.1225 92.0546 84.8725 93.6588C83.6433 95.2421 82.0497 96.5026 80.0914 97.4401C78.1539 98.3567 75.8933 98.8151 73.31 98.8151C71.2266 98.8151 69.5809 98.5963 68.3725 98.1588C67.185 97.7213 65.9976 97.138 64.8101 96.4088L64.8101 112.721H53.5601L53.5601 66.4401H64.8101L64.8101 69.3151C65.9351 68.3359 67.1747 67.5234 68.5288 66.8776C69.9038 66.2109 71.758 65.8776 74.0913 65.8776C76.4038 65.8776 78.6747 66.4505 80.9039 67.5963C83.133 68.7421 84.9663 70.5338 86.4038 72.9713C87.8413 75.388 88.56 78.4401 88.56 82.1276V82.1276ZM76.7164 82.3776C76.7164 80.4609 76.4143 78.9088 75.8101 77.7213C75.2059 76.513 74.4246 75.6484 73.4663 75.1276C72.5079 74.5859 71.5184 74.3151 70.4976 74.3151C69.1642 74.3151 68.0705 74.5338 67.2163 74.9713C66.3621 75.388 65.5601 75.9192 64.8101 76.5651L64.8101 88.7213C65.206 88.9296 65.6226 89.1692 66.06 89.4401C66.5184 89.6901 66.9663 89.9088 67.4038 90.0963C67.8621 90.2838 68.3413 90.4401 68.8413 90.5651C69.3621 90.6901 69.9143 90.7526 70.4976 90.7526C72.2684 90.7526 73.7476 90.0026 74.9351 88.5026C76.1227 87.0026 76.7164 84.9609 76.7164 82.3776V82.3776Z" fill="white"/>
<path d="M129.498 82.3151C129.498 85.4817 128.81 88.3046 127.435 90.7838C126.06 93.263 123.998 95.2213 121.248 96.6588C118.518 98.0963 115.185 98.8151 111.248 98.8151C107.31 98.8151 103.966 98.0963 101.216 96.6588C98.4872 95.2213 96.4351 93.263 95.06 90.7838C93.7059 88.3046 93.0288 85.4817 93.0288 82.3151C93.0288 79.9192 93.4039 77.7421 94.1539 75.7838C94.9247 73.8255 96.081 72.0963 97.6227 70.5963C99.1852 69.0755 101.102 67.9088 103.373 67.0963C105.643 66.2838 108.268 65.8776 111.248 65.8776C114.248 65.8776 116.893 66.2942 119.185 67.1276C121.498 67.9401 123.404 69.0859 124.904 70.5651C126.425 72.0442 127.571 73.7734 128.341 75.7526C129.112 77.7317 129.498 79.9192 129.498 82.3151V82.3151ZM117.654 82.3151C117.654 79.7942 117.102 77.8255 115.998 76.4088C114.914 74.9713 113.331 74.2526 111.248 74.2526C109.185 74.2526 107.602 74.9713 106.498 76.4088C105.414 77.8255 104.873 79.7942 104.873 82.3151C104.873 84.8151 105.425 86.7942 106.529 88.2526C107.633 89.7109 109.206 90.4401 111.248 90.4401C113.331 90.4401 114.914 89.7213 115.998 88.2838C117.102 86.8255 117.654 84.8359 117.654 82.3151V82.3151Z" fill="white"/>
<path d="M185.998 66.4401L173.435 98.2526H166.341L159.248 80.9088L152.185 98.2526H145.091L132.216 66.4401H143.623L149.435 82.5026L155.654 66.4401H162.81L169.091 82.5026L174.716 66.4401H185.998V66.4401Z" fill="white"/>
<path d="M222.623 85.0651H200.216C200.654 87.0026 201.727 88.5859 203.435 89.8151C205.143 91.0442 207.081 91.6588 209.248 91.6588C213.039 91.6588 217.227 90.5963 221.81 88.4713L221.81 95.4401C220.164 96.2942 218.164 97.0755 215.81 97.7838C213.477 98.4713 210.498 98.8151 206.873 98.8151C202.956 98.8151 199.623 98.0859 196.873 96.6276C194.123 95.1692 192.06 93.1901 190.685 90.6901C189.331 88.1901 188.654 85.3567 188.654 82.1901C188.654 79.0651 189.331 76.2734 190.685 73.8151C192.06 71.3359 194.123 69.3984 196.873 68.0026C199.623 66.5859 202.956 65.8776 206.873 65.8776C209.456 65.8776 211.946 66.4401 214.341 67.5651C216.758 68.6692 218.737 70.4921 220.279 73.0338C221.841 75.5546 222.623 78.8151 222.623 82.8151L222.623 85.0651V85.0651ZM212.06 79.5026C212.06 77.4609 211.55 75.8359 210.529 74.6276C209.529 73.3984 208.081 72.7838 206.185 72.7838C204.31 72.7838 202.789 73.4088 201.623 74.6588C200.477 75.888 199.904 77.5026 199.904 79.5026H212.06V79.5026Z" fill="white"/>
<path d="M256.091 68.1588L251.935 79.4401C250.227 77.8151 248.498 77.0026 246.748 77.0026C245.164 77.0026 243.789 77.5442 242.623 78.6276C241.477 79.6901 240.373 81.6692 239.31 84.5651L239.31 98.2526H228.06L228.06 66.4401H239.31L239.31 74.1276C240.019 72.2317 241.268 70.388 243.06 68.5963C244.852 66.7838 246.956 65.8776 249.373 65.8776C250.643 65.8776 251.748 66.0651 252.685 66.4401C253.644 66.8151 254.779 67.388 256.091 68.1588V68.1588Z" fill="white"/>
<path d="M292.373 85.0651H269.966C270.404 87.0026 271.477 88.5859 273.185 89.8151C274.893 91.0442 276.831 91.6588 278.998 91.6588C282.789 91.6588 286.977 90.5963 291.56 88.4713L291.56 95.4401C289.914 96.2942 287.914 97.0755 285.56 97.7838C283.227 98.4713 280.248 98.8151 276.623 98.8151C272.706 98.8151 269.373 98.0859 266.623 96.6276C263.873 95.1692 261.81 93.1901 260.435 90.6901C259.081 88.1901 258.404 85.3567 258.404 82.1901C258.404 79.0651 259.081 76.2734 260.435 73.8151C261.81 71.3359 263.873 69.3984 266.623 68.0026C269.373 66.5859 272.706 65.8776 276.623 65.8776C279.206 65.8776 281.696 66.4401 284.091 67.5651C286.508 68.6692 288.487 70.4921 290.029 73.0338C291.591 75.5546 292.373 78.8151 292.373 82.8151L292.373 85.0651V85.0651ZM281.81 79.5026C281.81 77.4609 281.3 75.8359 280.279 74.6276C279.279 73.3984 277.831 72.7838 275.935 72.7838C274.06 72.7838 272.539 73.4088 271.373 74.6588C270.227 75.888 269.654 77.5026 269.654 79.5026H281.81V79.5026Z" fill="white"/>
<path d="M331.529 98.2526H320.248L320.248 95.3776C319.06 96.3776 317.8 97.2005 316.466 97.8463C315.154 98.4921 313.331 98.8151 310.998 98.8151C308.685 98.8151 306.414 98.2421 304.185 97.0963C301.956 95.9505 300.123 94.1692 298.685 91.7526C297.248 89.3151 296.529 86.2526 296.529 82.5651C296.529 79.6692 297.071 76.9609 298.154 74.4401C299.237 71.8984 300.935 69.8359 303.248 68.2526C305.56 66.6692 308.394 65.8776 311.748 65.8776C313.831 65.8776 315.518 66.1067 316.81 66.5651C318.102 67.0234 319.248 67.6067 320.248 68.3151L320.248 54.9401H331.529L331.529 98.2526V98.2526ZM320.248 88.1276L320.248 75.9713C318.935 75.2421 317.904 74.7213 317.154 74.4088C316.425 74.0963 315.56 73.9401 314.56 73.9401C312.789 73.9401 311.31 74.6901 310.123 76.1901C308.956 77.6901 308.373 79.7317 308.373 82.3151C308.373 85.1276 308.987 87.1796 310.216 88.4713C311.466 89.7421 312.914 90.3776 314.56 90.3776C315.914 90.3776 317.008 90.1692 317.841 89.7526C318.675 89.3151 319.477 88.7734 320.248 88.1276V88.1276Z" fill="white"/>
<path d="M392.56 82.5651C392.56 86.2526 391.841 89.3151 390.404 91.7526C388.966 94.1692 387.133 95.9505 384.904 97.0963C382.675 98.2421 380.404 98.8151 378.091 98.8151C376.425 98.8151 374.977 98.6276 373.748 98.2526C372.539 97.8567 371.591 97.4401 370.904 97.0026C370.237 96.5442 369.539 96.0026 368.81 95.3776L368.81 98.2526H357.56L357.56 54.9401H368.81L368.81 68.3151C369.643 67.6692 370.789 67.1067 372.248 66.6276C373.706 66.1276 375.393 65.8776 377.31 65.8776C379.873 65.8776 382.133 66.3463 384.091 67.2838C386.05 68.2005 387.643 69.4505 388.873 71.0338C390.123 72.6171 391.05 74.3984 391.654 76.3776C392.258 78.3359 392.56 80.3984 392.56 82.5651V82.5651ZM380.716 82.3151C380.716 79.5859 380.102 77.513 378.873 76.0963C377.643 74.6588 376.185 73.9401 374.498 73.9401C372.81 73.9401 370.914 74.6171 368.81 75.9713L368.81 88.1276C370.393 89.6276 372.289 90.3776 374.498 90.3776C375.894 90.3776 377.279 89.8151 378.654 88.6901C380.029 87.5442 380.716 85.4192 380.716 82.3151V82.3151Z" fill="white"/>
<path d="M432.466 66.4401L410.841 112.721H399.466L408.216 94.0963L395.623 66.4401H407.716L414.185 82.2526L421.529 66.4401H432.466V66.4401Z" fill="white"/>
<path d="M150.821 133.659L125.821 192.159H115.737L100.737 158.117L85.3621 192.159H75.1955L50.6956 133.659H68.7372L80.7373 165.659L94.4872 133.659H106.945L120.446 165.659L132.987 133.659H150.821V133.659Z" fill="white"/>
<path d="M176.279 191.409H158.862L158.862 133.659H176.279L176.279 191.409Z" fill="white"/>
<path d="M251.696 191.409H230.445L208.362 164.367L208.362 191.409H190.945L190.945 133.659H208.362L208.362 159.492L229.279 133.659H248.195L226.695 160.701L251.696 191.409Z" fill="white"/>
<path d="M276.779 191.409H259.362L259.362 133.659H276.779L276.779 191.409Z" fill="white"/>
<path d="M350.82 163.575C350.82 169.492 349.737 174.242 347.571 177.825C345.432 181.409 342.904 184.312 339.987 186.534C335.848 189.784 330.057 191.409 322.612 191.409H321.737H291.446L291.446 133.659H315.446C319.057 133.659 322.14 133.853 324.696 134.242C327.279 134.603 329.598 135.131 331.654 135.825C333.709 136.492 335.459 137.256 336.904 138.117C338.348 138.95 339.64 139.853 340.779 140.825C342.751 142.437 344.473 144.339 345.946 146.534C347.446 148.728 348.626 151.27 349.487 154.159C350.376 157.048 350.82 160.187 350.82 163.575V163.575ZM333.112 162.825C333.112 158.131 332.209 154.478 330.404 151.867C328.626 149.228 326.473 147.464 323.946 146.575C321.446 145.687 318.89 145.242 316.279 145.242H308.862L308.862 179.45H316.279C320.834 179.45 324.779 178.367 328.112 176.2C331.446 174.034 333.112 169.575 333.112 162.825V162.825Z" fill="white"/>
<path d="M425.029 191.409H407.196L402.487 179.701H377.404L372.612 191.409H354.779L380.321 133.659H399.571L425.029 191.409V191.409ZM398.487 169.659L390.029 148.576L381.487 169.659H398.487Z" fill="white"/>
<path d="M488.154 147.701H466.987L466.987 191.409H449.612L449.612 147.701H428.445L428.445 133.659H488.154L488.154 147.701V147.701Z" fill="white"/>
<path d="M561.695 191.409H543.862L539.154 179.701H514.071L509.279 191.409H491.446L516.987 133.659H536.237L561.695 191.409V191.409ZM535.154 169.659L526.695 148.576L518.154 169.659H535.154V169.659Z" fill="white"/>
</svg>
