<svg width="810" height="501" viewBox="0 0 810 501" fill="none" xmlns="http://www.w3.org/2000/svg">
<path d="M0.420715 500.017H29.5835V0.0524902H0.420715V500.017ZM60.6933 500.017H150.123V0.0524902H60.6933V500.017ZM179.291 0.0524902V499.999H268.721V0.0524902H179.291Z" fill="white"/>
<path d="M719.979 500.052H749.148V0.0524292H719.979V500.052ZM780.258 0.0524292V500.052H809.421V0.0524292H780.258ZM298.854 500.052H328.017V0.0524902H298.854V500.052ZM359.132 0.0524902V500.035H388.301V0.0524902H359.132Z" fill="white"/>
<path d="M418.422 500.052H507.864V0.0524902H418.422V500.052ZM537.021 500.052H568.124V0.0524902H537.021V500.052V500.052ZM597.293 0.0524902V500.035H686.722V0.0524902H597.293Z" fill="white"/>
</svg>
