<svg width="634" height="61" viewBox="0 0 634 61" fill="none" xmlns="http://www.w3.org/2000/svg">
<path d="M0 60.5643H3.5327V0H0V60.5643ZM7.30125 60.5643H18.1345V0H7.30125V60.5643ZM21.6679 0V60.5621H32.5011V0H21.6679Z" fill="white"/>
<path d="M87.1653 60.5686H90.6988V0H87.1653V60.5686ZM94.4673 0V60.5686H98V0H94.4673ZM36.1514 60.5686H39.6841V7.39363e-06H36.1514V60.5686ZM43.4533 7.39363e-06V60.5664H46.9868V7.39363e-06H43.4533Z" fill="white"/>
<path d="M50.6356 60.5686H61.4702V0H50.6356V60.5686ZM65.0022 60.5686H68.77V0H65.0022V60.5686V60.5686ZM72.3035 0V60.5664H83.1367V0H72.3035Z" fill="white"/>
<path d="M223.125 0.00012207L198.125 58.5001H188.042L173.042 24.4585L157.667 58.5001H147.5L123 0.00012207L141.042 0.00012207L153.042 32.0001L166.792 0.00012207L179.25 0.00012207L192.75 32.0001L205.292 0.00012207L223.125 0.00012207V0.00012207Z" fill="white"/>
<path d="M248.583 57.75H231.167L231.167 0L248.583 0L248.583 57.75Z" fill="white"/>
<path d="M324 57.7501H302.75L280.667 30.7085L280.667 57.7501H263.25L263.25 0.00012207L280.667 0.00012207L280.667 25.8335L301.583 0.00012207L320.5 0.00012207L299 27.0418L324 57.7501Z" fill="white"/>
<path d="M349.083 57.7501H331.667L331.667 0.00012207L349.083 0.00012207L349.083 57.7501Z" fill="white"/>
<path d="M423.125 29.9167C423.125 35.8333 422.042 40.5833 419.875 44.1667C417.736 47.75 415.208 50.6528 412.292 52.875C408.153 56.125 402.361 57.75 394.917 57.75H394.042H363.75L363.75 0L387.75 0C391.361 0 394.444 0.194445 397 0.583333C399.583 0.944444 401.903 1.47222 403.958 2.16667C406.014 2.83333 407.764 3.59722 409.208 4.45833C410.653 5.29167 411.944 6.19444 413.083 7.16667C415.055 8.77778 416.778 10.6806 418.25 12.875C419.75 15.0694 420.931 17.6111 421.792 20.5C422.681 23.3889 423.125 26.5278 423.125 29.9167V29.9167ZM405.417 29.1667C405.417 24.4722 404.514 20.8194 402.708 18.2083C400.931 15.5694 398.778 13.8056 396.25 12.9167C393.75 12.0278 391.194 11.5833 388.583 11.5833H381.167L381.167 45.7917H388.583C393.139 45.7917 397.083 44.7083 400.417 42.5417C403.75 40.375 405.417 35.9167 405.417 29.1667V29.1667Z" fill="white"/>
<path d="M497.333 57.7501H479.5L474.792 46.0418H449.708L444.917 57.7501H427.083L452.625 0.00012207L471.875 0.00012207L497.333 57.7501V57.7501ZM470.792 36.0001L462.333 14.9168L453.792 36.0001H470.792Z" fill="white"/>
<path d="M560.458 14.0418H539.292L539.292 57.7501H521.917L521.917 14.0418H500.75L500.75 0.00012207L560.458 0.00012207L560.458 14.0418V14.0418Z" fill="white"/>
<path d="M634 57.7501H616.167L611.458 46.0418H586.375L581.583 57.7501H563.75L589.292 0.00012207L608.542 0.00012207L634 57.7501V57.7501ZM607.458 36.0001L599 14.9168L590.458 36.0001H607.458V36.0001Z" fill="white"/>
</svg>
